<?xml version="1.0" encoding="UTF-8" standalone="no"?>
<!-- Created with Inkscape (http://www.inkscape.org/) -->

<svg
   version="1.1"
   id="svg2"
   width="976.83624"
   height="828.83484"
   viewBox="0 0 976.83624 828.83484"
   sodipodi:docname="origami.png"
   xml:space="preserve"
   inkscape:export-filename="origami.svg"
   inkscape:export-xdpi="96"
   inkscape:export-ydpi="96"
   xmlns:inkscape="http://www.inkscape.org/namespaces/inkscape"
   xmlns:sodipodi="http://sodipodi.sourceforge.net/DTD/sodipodi-0.dtd"
   xmlns="http://www.w3.org/2000/svg"
   xmlns:svg="http://www.w3.org/2000/svg"><defs
     id="defs6" /><sodipodi:namedview
     id="namedview4"
     pagecolor="#505050"
     bordercolor="#eeeeee"
     borderopacity="1"
     inkscape:showpageshadow="0"
     inkscape:pageopacity="0"
     inkscape:pagecheckerboard="0"
     inkscape:deskcolor="#505050"
     showgrid="false"
     inkscape:zoom="0.63603348"
     inkscape:cx="504.69041"
     inkscape:cy="487.39572"
     inkscape:window-width="1920"
     inkscape:window-height="1053"
     inkscape:window-x="0"
     inkscape:window-y="0"
     inkscape:window-maximized="1"
     inkscape:current-layer="g8" /><g
     inkscape:groupmode="layer"
     inkscape:label="Image"
     id="g8"
     transform="translate(-50.771234,-81.311246)"><path
       style="fill:#ffcc66;fill-opacity:1"
       d="m 115.52023,908.95838 c -5.288,-2.93439 -8.0217,-12.35562 -5.14489,-17.73098 0.57468,-1.0738 49.86764,-52.64728 109.53992,-114.60773 59.67227,-61.96045 108.36458,-113.22792 108.20513,-113.92771 -0.15946,-0.6998 -61.93992,-75.11655 -137.28992,-165.37057 -75.35,-90.25402 -137.804723,-165.87885 -138.788273,-168.05518 -1.45814,-3.22646 -1.59614,-4.67052 -0.74751,-7.8221 1.18396,-4.39688 5.20264,-8.88566 8.7528,-9.77669 6.09808,-1.53053 9.91229,0.18912 23.01446,10.37612 7.02269,5.46016 22.893523,17.7344 35.268523,27.27608 22.09439,17.03576 54.29626,41.90367 79,61.00778 6.875,5.31664 37.25,28.76661 67.5,52.11106 78.11608,60.28354 134.90753,104.11803 165,127.35529 14.3,11.04239 28.82997,22.24091 32.28881,24.8856 l 6.28882,4.80852 5.21118,-4.4535 5.21119,-4.4535 5.84949,-74.80611 c 3.21721,-41.14336 6.30934,-75.8154 6.8714,-77.04897 1.04779,-2.29965 368.07565,-364.610794 375.32546,-370.502114 1.07451,-0.87317 2.96317,-2.78567 4.19704,-4.25 1.79334,-2.12832 3.11249,-2.66243 6.57568,-2.66243 5.47999,0 9.09335,3.34661 8.9084,8.25073 -0.0674,1.7871 -0.16771,5.04927 -0.2229,7.24927 -0.0552,2.199999 -6.85125,92.154474 -15.10234,199.898834 -8.25109,107.74436 -14.76866,196.50686 -14.48349,197.25 0.28517,0.74314 1.84815,1.35116 3.47328,1.35116 3.5232,0 3.68078,0.11698 41.60798,30.88743 15.95,12.94029 50.07151,40.60211 75.82558,61.47071 25.75405,20.86861 47.54155,39.03566 48.41665,40.37123 2.1011,3.20661 2.0327,10.43902 -0.1299,13.73953 -2.795,4.26569 -7.5327,6.70086 -12.1123,6.22559 -2.2,-0.22832 -23.57503,-6.82165 -47.50003,-14.65186 -82.91376,-27.13612 -92.33577,-30.10642 -93.02557,-29.32643 -0.38123,0.43109 -3.62486,6.4088 -7.20806,13.2838 -18.6046,35.69625 -31.76467,60.9814 -38.51451,74 -4.13484,7.975 -9.42431,18.1 -11.75437,22.5 -2.33006,4.4 -7.38733,14.075 -11.23839,21.5 -10.69771,20.62564 -31.87282,61.30451 -37.73938,72.5 -2.88206,5.5 -12.34335,23.725 -21.02509,40.5 -8.68174,16.775 -16.73215,31.55526 -17.88981,32.84501 -3.09247,3.44538 -6.96562,5.15499 -11.67866,5.15499 -3.77097,0 -8.74687,-2.94455 -51.63045,-30.553 l -47.45729,-30.553 -61.16921,10.60343 c -33.64307,5.83189 -76.46921,13.2673 -95.16921,16.52315 -18.7,3.25584 -91.375,15.84521 -161.5,27.97636 -70.125,12.13116 -137.67577,23.84459 -150.11282,26.02985 -23.98635,4.21455 -29.98409,4.68094 -33.69742,2.62035 z M 363.39804,802.48891 c 110.31217,-40.71268 202.05925,-74.63172 203.8824,-75.37565 l 3.31483,-1.35259 -27.8824,-12.8913 C 527.37755,705.77915 501.8898,693.97803 486.07344,686.64465 L 457.3164,673.31124 H 401.57127 345.82613 L 250.8283,771.88418 C 198.57949,826.0993 153.21064,873.34157 150.00863,876.86701 l -5.82184,6.40988 9.32184,-3.38247 c 5.12701,-1.86035 99.57725,-36.69283 209.88941,-77.40551 z m -39.56757,54.29144 c 105.26607,-18.20619 144.45069,-24.99071 241.66808,-41.84296 l 71.66808,-12.42338 19.58192,-13.19828 c 10.77006,-7.25906 19.58192,-13.51394 19.58192,-13.89974 0,-0.38581 -18.26413,-9.13481 -40.58696,-19.44222 L 595.15655,737.233 517.49351,765.8882 c -42.71467,15.76035 -117.26304,43.27276 -165.66304,61.13867 -48.4,17.86591 -95.83004,35.35622 -105.4001,38.86735 -17.22266,6.31878 -21.41216,8.21248 -15.5999,7.05132 1.65,-0.32963 43.5,-7.60397 93,-16.16519 z m 375.43754,-31.92892 c -4.57347,-18.9971 -8.71702,-34.54019 -9.20788,-34.54019 -1.07272,0 -44.69337,29.28402 -44.68715,30 0.007,0.76408 61.341,39.94982 61.80463,39.48619 0.22319,-0.22319 -3.33613,-15.94889 -7.9096,-34.946 z m 40.86574,-53.04019 c 32.39882,-90.14948 51.08321,-142.02638 59.96793,-166.5 l 8.53127,-23.5 -0.22015,-12.5 c -0.12108,-6.875 -0.55087,-12.83924 -0.9551,-13.25386 -0.40422,-0.41462 -13.59299,15.11038 -29.30838,34.5 -15.71539,19.38962 -31.68065,39.07886 -35.47837,43.75386 -3.79772,4.675 -15.6404,19.3 -26.31708,32.5 -10.67667,13.2 -24.29538,29.95338 -30.2638,37.22973 -9.98195,12.16941 -10.75527,13.41168 -9.64891,15.5 0.66151,1.24865 7.41391,12.95693 15.00533,26.01841 7.59142,13.06148 14.2791,25.43648 14.86151,27.5 0.82132,2.91 8.07314,32.98678 12.59506,52.23773 0.45359,1.93105 0.76236,2.15424 1.38347,1 0.43975,-0.81723 9.371,-25.33587 19.84722,-54.48587 z m 31.73731,-14.75 c 9.75989,-18.8375 22.11565,-42.575 27.45724,-52.75 5.34159,-10.175 16.8329,-32.225 25.53624,-49 8.70334,-16.775 19.08443,-36.71164 23.06908,-44.30365 7.01033,-13.35688 7.17446,-13.82991 5.07084,-14.615 -11.39274,-4.25187 -25.78602,-8.3504 -26.49494,-7.54451 -0.466,0.52974 -10.12639,26.83816 -21.46753,58.46316 -11.34113,31.625 -26.54008,73.925 -33.77543,94 -15.31181,42.48373 -17.93932,50 -17.47884,50 0.18595,0 8.32346,-15.4125 18.08334,-34.25 z M 670.91267,748.4702 c -0.80804,-1.56258 -5.61766,-10.00008 -10.68804,-18.75 -19.51136,-33.67061 -34.58545,-59.70939 -63.33785,-109.40896 -16.38669,-28.325 -30.34526,-52.08867 -31.01903,-52.80817 -0.99142,-1.05869 -11.60069,7.04638 -55.63116,42.5 -49.31372,39.70773 -54.12669,43.83991 -51.4208,44.1473 1.64192,0.18652 11.99192,4.50825 23,9.60383 11.00807,5.09559 42.96468,19.87849 71.01468,32.85089 28.05,12.9724 65.85,30.54085 84,39.041 18.15,8.50014 33.57406,15.50213 34.27568,15.55998 0.98291,0.081 0.9385,-0.54686 -0.19348,-2.73587 z m 12.45872,-71.23827 c 9.36998,-11.52714 17.22718,-21.51244 17.46044,-22.18956 0.248,-0.7199 -12.11187,-9.74382 -29.76466,-21.73113 -16.60382,-11.275 -39.59362,-26.93093 -51.08844,-34.79095 -11.49483,-7.86003 -21.09031,-14.10033 -21.32329,-13.86735 -0.23299,0.23298 2.70391,5.76391 6.52644,12.29095 8.83275,15.08211 39.05646,67.16298 50.55549,87.11617 4.83335,8.38685 9.1951,14.99715 9.6928,14.68956 0.49769,-0.30759 8.57124,-9.99055 17.94122,-21.51769 z M 438.5693,643.19691 c 7.55584,-6.11288 13.50827,-11.48586 13.22763,-11.93994 -0.28064,-0.45408 -12.9879,-10.45592 -28.23836,-22.22632 C 408.30812,597.26026 360.95547,560.70336 318.33047,527.7931 128.81113,381.46744 105.73506,363.68168 104.32499,362.84948 c -1.18907,-0.70176 -1.16356,-0.48923 0.12482,1.03987 0.89064,1.05704 42.69495,51.19689 92.89848,111.42189 50.20352,60.225 104.34113,125.1375 120.3058,144.25 l 29.02666,34.75 h 39.07533 39.07534 z m 281.43139,-11.13567 c 3.2079,-3.9875 24.88011,-30.72805 48.16045,-59.42344 l 42.3279,-52.17343 12.50184,-7.20618 c 6.87601,-3.9634 12.7097,-7.74788 12.96377,-8.40995 0.73244,-1.90871 27.99447,-358.54041 27.40536,-358.50666 -0.29125,0.0167 -13.30764,28.70419 -28.92531,63.75 -33.02589,74.10959 -145.81338,326.45047 -163.21748,365.16854 -6.94003,15.43916 -11.51878,26.81909 -10.99962,27.33825 1.38624,1.38624 52.52944,36.55371 53.2817,36.63796 0.36786,0.0412 3.29349,-3.18759 6.50139,-7.17509 z m 244.63804,-30.43068 c -11.99454,-9.72438 -35.98326,-29.16858 -53.30826,-43.20935 -17.325,-14.04077 -36.36657,-29.48446 -42.3146,-34.31932 -5.94804,-4.83486 -11.12304,-8.7736 -11.5,-8.75276 -0.37697,0.0208 -7.4354,4.015 -15.6854,8.87593 l -15,8.83804 -0.31225,11.37407 c -0.17174,6.25574 -0.0321,14.10589 0.31039,17.44478 l 0.62265,6.07071 23.1896,7.60707 c 12.75429,4.18389 44.56461,14.58511 70.68961,23.11382 26.125,8.52871 50.875,16.62509 55,17.99196 4.125,1.36686 8.08872,2.52132 8.80826,2.56547 0.71954,0.0441 -8.50546,-7.87605 -20.5,-17.60042 z m -402.33575,-57.6178 c 5.10754,-3.51489 8.05091,-2.44483 24.83284,9.02801 8.63206,5.90124 24.69465,16.88101 35.69465,24.39948 11,7.51848 20.28031,13.37769 20.62291,13.02047 0.3426,-0.35721 8.84219,-19.09948 18.88798,-41.64948 19.07898,-42.82702 40.59053,-90.98021 90.46312,-202.5 47.71988,-106.70611 75.12565,-167.99612 85.14995,-190.42855 5.14375,-11.51071 9.20674,-21.07409 9.02886,-21.25196 -0.2665,-0.2665 -275.22221,270.11556 -323.54362,318.16175 l -14.3908,14.30883 -1.34952,16.85497 c -4.26552,53.27445 -8.36888,106.33995 -8.36888,108.22812 0,1.74808 5.9613,-2.61629 30.25,-22.1465 16.6375,-13.37799 31.36263,-25.0893 32.72251,-26.02514 z"
       id="path170" /><path
       style="fill:#ffbc5e;fill-opacity:0.14902;stroke:#ffc965;stroke-width:1.57224;stroke-opacity:0.14902"
       d="M 230.66626,513.90322 C 166.42642,436.84162 114.20336,373.4544 114.61503,373.04274 c 0.41166,-0.41167 51.55652,38.46192 113.65523,86.38574 62.09871,47.92383 133.42453,102.94229 158.50183,122.26325 38.59795,29.73804 55.54719,42.96862 62.62464,48.88479 0.71891,0.60096 -4.67382,6.12914 -11.98385,12.28487 l -13.29096,11.19223 -38.32797,-0.0192 -38.32797,-0.0192 z"
       id="path6461" /><path
       style="fill:#ffbc5e;fill-opacity:0.14902;stroke:#ffc965;stroke-width:1.57224;stroke-opacity:0.14902"
       d="m 157.40693,870.63026 c 25.2023,-25.99976 167.7785,-174.51987 177.24334,-184.63253 l 10.76796,-11.50494 h 56.2354 56.23541 l 54.84557,25.35635 c 30.16506,13.946 55.02751,25.50705 55.24986,25.69123 0.22236,0.18418 -16.05037,6.40819 -36.16162,13.83115 -20.11124,7.42295 -114.31175,42.2038 -209.33445,77.29078 -95.0227,35.08696 -173.18211,63.79449 -173.68757,63.79449 -0.50547,0 3.36728,-4.42194 8.6061,-9.82653 z"
       id="path7222" /><path
       style="fill:#ffbc5e;fill-opacity:0.14902;stroke:#ffc965;stroke-width:1.57224;stroke-opacity:0.14902"
       d="M 605.31404,719.97685 C 536.1402,687.92746 468.83298,656.99261 463.18521,654.65349 c -3.62306,-1.50055 -3.22124,-2.02482 10.21959,-13.33377 33.98571,-28.59518 89.12984,-72.18527 91.25683,-72.1363 1.5655,0.0361 -1.33031,-4.83124 58.1333,97.71073 25.40726,43.81351 46.19501,80.07339 46.19501,80.57752 0,0.50414 -0.53064,0.91616 -1.17919,0.91561 -0.64855,-5.5e-4 -28.77207,-12.78524 -62.49671,-28.41043 z"
       id="path7224" /><path
       style="fill:#ffbc5e;fill-opacity:0.14902;stroke:#ffc965;stroke-width:1.57224;stroke-opacity:0.14902"
       d="m 244.48398,867.66751 c 3.58785,-1.44609 132.30247,-49.00293 287.05649,-106.0602 33.7917,-12.45888 62.44585,-22.63899 63.6759,-22.62248 3.81393,0.0512 77.64022,35.25202 77.42713,36.91772 -0.11068,0.86473 -8.22991,7.03764 -18.04285,13.71757 l -17.84172,12.14532 -26.72815,4.67962 c -14.70049,2.57378 -47.5997,8.27976 -73.10936,12.67994 -50.65713,8.73789 -84.7356,14.64614 -208.33667,36.11975 -44.97405,7.81348 -83.17958,14.16148 -84.90119,14.10667 -2.65025,-0.0844 -2.52752,-0.34256 0.80042,-1.68391 z"
       id="path7226" /><path
       style="fill:#ffbc5e;fill-opacity:0.14902;stroke:#ffc965;stroke-width:1.57224;stroke-opacity:0.14902"
       d="m 500.81196,586.18455 c 0.0287,-2.88216 2.03966,-30.63504 4.46881,-61.67308 l 4.41664,-56.43278 50.16668,-49.71861 c 47.97655,-47.54801 214.6438,-211.60362 260.82115,-256.7341 12.09183,-11.81771 22.18875,-21.28314 22.43759,-21.0343 0.40781,0.40782 -17.63722,41.10349 -89.98808,202.94369 -12.75716,28.53624 -29.04286,64.973 -36.19045,80.97058 -58.01577,129.84958 -73.46637,164.34511 -73.74561,164.64688 -0.36033,0.38942 -20.90839,-13.1616 -48.10423,-31.72373 -9.94445,-6.78745 -20.4472,-13.33146 -23.33946,-14.54223 -6.28679,-2.63184 -6.38037,-2.58197 -28.54461,15.21148 -8.21497,6.59499 -21.12703,16.79138 -28.69345,22.65868 l -13.75714,10.66782 z"
       id="path7228" /><path
       style="fill:#ffbc5e;fill-opacity:0.14902;stroke:#ffc965;stroke-width:1.57224;stroke-opacity:0.14902"
       d="m 688.32122,621.11293 c -13.98237,-9.54327 -25.857,-18.05444 -26.38806,-18.91372 -0.53106,-0.85928 11.72506,-30.0485 27.23581,-64.86494 69.07102,-155.04122 169.01624,-378.09995 171.01909,-381.68209 2.02453,-3.6209 2.13255,-3.18731 1.3709,5.50286 -0.45472,5.1884 -3.30731,43.39394 -6.33905,84.90119 -7.36955,100.89568 -19.50952,255.88923 -20.19611,257.84806 -0.30309,0.86473 -6.01531,4.75604 -12.69379,8.64734 -11.90854,6.93866 -13.04174,8.18029 -58.76466,64.38757 -25.64208,31.52186 -47.34189,58.26033 -48.2218,59.41881 -1.26139,1.66074 -6.97797,-1.56437 -27.02233,-15.24508 z"
       id="path7230" /><path
       style="fill:#ffbc5e;fill-opacity:0.14902;stroke:#ffc965;stroke-width:1.57224;stroke-opacity:0.14902"
       d="M 661.83046,692.2386 C 655.035,681.90148 601.5858,588.86515 602.12997,588.32098 c 0.3295,-0.3295 18.51471,11.63399 40.41157,26.58554 46.21943,31.55941 56.32104,38.80803 56.32104,40.41437 0,1.50036 -31.18925,40.24928 -32.87908,40.84832 -0.69991,0.24812 -2.56878,-1.52065 -4.15304,-3.93061 z"
       id="path7232" /><path
       style="fill:#ffbc5e;fill-opacity:0.14902;stroke:#ffc965;stroke-width:1.57224;stroke-opacity:0.14902"
       d="m 718.56645,820.50397 c -12.55816,-52.63172 -11.22477,-49.00718 -30.13657,-81.92004 l -11.81064,-20.55447 3.35543,-4.53845 c 4.70932,-6.3697 88.11566,-109.29802 109.16549,-134.71663 l 17.42115,-21.03681 0.44922,12.38946 0.44921,12.38947 -43.36923,120.22203 c -23.85308,66.12212 -43.6542,120.50698 -44.00248,120.85526 -0.34828,0.34829 -1.033,-1.04213 -1.52158,-3.08982 z"
       id="path7234" /><path
       style="fill:#ffbc5e;fill-opacity:0.14902;stroke:#ffc965;stroke-width:1.57224;stroke-opacity:0.14902"
       d="m 760.22791,776.1242 c -0.046,-1.29833 38.30686,-108.81945 55.03943,-154.30159 4.45382,-12.10628 8.85762,-24.31083 9.78623,-27.12122 0.92861,-2.81038 2.20266,-5.10979 2.83122,-5.10979 2.44398,0 22.77411,6.65412 24.05942,7.87473 0.74804,0.71038 -18.98576,40.44163 -43.85287,88.29166 -51.7044,99.49112 -47.80127,92.12201 -47.86343,90.36621 z"
       id="path7236" /><path
       style="fill:#ffbc5e;fill-opacity:0.14902;stroke:#ffc965;stroke-width:1.57224;stroke-opacity:0.14902"
       d="m 922.12126,598.1261 c -29.83333,-9.86919 -63.26318,-20.83641 -74.28854,-24.37159 l -20.04611,-6.42759 v -17.0499 -17.0499 l 14.27009,-8.16614 c 10.75548,-6.15489 14.99101,-7.82972 17.19722,-6.8002 1.60993,0.75127 28.14803,21.88374 58.97356,46.96103 30.82553,25.0773 57.57788,46.8175 59.44968,48.31156 2.39086,1.90837 2.7017,2.68973 1.0449,2.62659 -1.2971,-0.0494 -26.76746,-8.16466 -56.6008,-18.03386 z"
       id="path7238" /><path
       style="fill:#ffbc5e;fill-opacity:0.14902;stroke:#ffc965;stroke-width:1.57224;stroke-opacity:0.14902"
       d="m 697.29033,853.02774 c -3.02657,-2.011 -15.58572,-10.17921 -27.90923,-18.15158 -26.01044,-16.82678 -26.24255,-12.84101 1.82327,-31.30967 9.43291,-6.20731 17.71108,-10.72569 18.39593,-10.04085 1.2827,1.2827 15.55125,57.47023 15.55125,61.23862 0,2.8617 -1.40943,2.55036 -7.86122,-1.73652 z"
       id="path7240" /></g></svg>
