<?xml version="1.0" encoding="UTF-8" standalone="no"?>
<!-- Created with Inkscape (http://www.inkscape.org/) -->

<svg
   version="1.1"
   id="svg2"
   width="1902.5159"
   height="1654.876"
   viewBox="0 0 1902.5159 1654.876"
   xml:space="preserve"
   xmlns="http://www.w3.org/2000/svg"
   xmlns:svg="http://www.w3.org/2000/svg"><defs
     id="defs6" /><g
     id="g8"
     transform="translate(-110.73615,-231.671)"><path
       id="path15135-7"
       style="fill:#ffcc66;fill-opacity:1;stroke:none;stroke-width:38.185;stroke-dasharray:none;stroke-opacity:0"
       d="M 241.07108,494.09392 A 130.33432,130.33432 0 0 0 110.73615,624.42885 130.33432,130.33432 0 0 0 241.07108,754.7616 130.33432,130.33432 0 0 0 312.94882,733.0105 l 483.69474,322.311 a 130.33432,130.33432 0 0 0 -1.31272,18.3694 130.33432,130.33432 0 0 0 130.33492,130.3327 130.33432,130.33432 0 0 0 130.33274,-130.3327 130.33432,130.33432 0 0 0 -23.1507,-74.09247 l 113.752,-189.40064 a 130.33432,130.33432 0 0 0 16.333,1.1671 130.33432,130.33432 0 0 0 71.7235,-21.63374 l 162.5421,105.90406 c 0.1598,-4.80261 0.3189,-9.60393 0.3259,-16.43721 0.01,-6.83329 -0.1389,-15.69638 -0.4846,-23.82885 -0.3458,-8.13248 -0.8908,-15.53365 -1.7779,-24.29612 -0.887,-8.76247 -2.1151,-18.88638 -3.5078,-28.81456 -1.3927,-9.92819 -2.9506,-19.6626 -4.5076,-29.39486 l -2.7796,-15.12014 -92.3815,-60.20892 a 130.33432,130.33432 0 0 0 1.1802,-16.50241 130.33432,130.33432 0 0 0 -130.3327,-130.33492 130.33432,130.33432 0 0 0 -130.335,130.33492 130.33432,130.33432 0 0 0 21.6099,71.69084 L 939.38626,944.1014 a 130.33432,130.33432 0 0 0 -13.7205,-0.74547 130.33432,130.33432 0 0 0 -68.81764,19.79072 L 370.215,641.04427 a 130.33432,130.33432 0 0 0 1.18883,-16.61542 130.33432,130.33432 0 0 0 -130.33275,-130.33493 z m 1.16493,54.44514 a 74.115344,75.459319 0 0 1 74.11632,75.45946 74.115344,75.459319 0 0 1 -74.11632,75.45946 74.115344,75.459319 0 0 1 -74.11415,-75.45946 74.115344,75.459319 0 0 1 74.11415,-75.45946 z m 921.86169,56.60329 a 74.115344,75.459319 0 0 1 74.1163,75.45946 74.115344,75.459319 0 0 1 -74.1163,75.45946 74.115344,75.459319 0 0 1 -74.1141,-75.45946 74.115344,75.459319 0 0 1 74.1141,-75.45946 z m 463.0999,309.57288 -1.4975,25.67188 c -1.2795,9.41847 -2.5587,18.83784 -4.0207,28.56896 -1.4621,9.73113 -3.1064,19.77473 -4.7815,28.26471 -1.6749,8.48992 -3.3801,15.42712 -4.8378,21.18602 -1.4579,5.7589 -2.6694,10.3388 -3.8796,14.9202 l 121.6589,79.026 a 130.33432,130.33432 0 0 0 -1.3736,18.7692 130.33432,130.33432 0 0 0 130.3327,130.3327 130.33432,130.33432 0 0 0 130.3328,-130.3327 130.33432,130.33432 0 0 0 -130.3328,-130.3349 130.33432,130.33432 0 0 0 -69.1219,19.9581 z m -700.3669,83.08583 a 74.115344,75.459319 0 0 1 74.1163,75.45944 74.115344,75.459319 0 0 1 -74.1163,75.4595 74.115344,75.459319 0 0 1 -74.11416,-75.4595 74.115344,75.459319 0 0 1 74.11416,-75.45944 z m 933.135,57.43134 a 74.115344,75.459319 0 0 1 74.1162,75.4595 74.115344,75.459319 0 0 1 -74.1162,75.4594 74.115344,75.459319 0 0 1 -74.1142,-75.4594 74.115344,75.459319 0 0 1 74.1142,-75.4595 z" /><path
       id="path21406"
       style="display:inline;opacity:1;fill:#ffbc5e;fill-opacity:0.14902;stroke:#ffc965;stroke-width:30.595;stroke-dasharray:none;stroke-dashoffset:0;stroke-opacity:1"
       d="M 977.04333,246.9685 A 606.12755,606.12755 0 0 0 425.12729,602.65811 l 119.1551,78.18476 A 464.61802,464.61802 0 0 1 975.01203,389.42125 464.61802,464.61802 0 0 1 1439.6314,854.03837 464.61802,464.61802 0 0 1 975.01203,1318.6555 464.61802,464.61802 0 0 1 516.87327,931.19194 L 371.56472,834.92777 a 606.12755,606.12755 0 0 0 -0.64895,18.16829 606.12755,606.12755 0 0 0 606.12756,606.12754 606.12755,606.12755 0 0 0 344.64637,-107.714 c 131.5666,159.8827 262.4273,318.8936 331.043,401.0314 69.6811,83.4133 75.4174,87.8532 81.8162,92.1171 6.3988,4.2639 13.4602,8.3516 20.9974,11.7966 7.5372,3.4449 15.5486,6.2485 23.8355,8.5097 8.2868,2.2612 16.8483,3.981 26.5823,5.0382 9.7339,1.0578 20.6402,1.4511 31.2073,1.1445 10.5669,-0.3065 20.7959,-1.3129 32.4918,-3.4781 11.696,-2.165 24.8597,-5.4881 36.261,-9.3208 11.4013,-3.8327 21.0385,-8.1761 29.6248,-13.1323 8.5864,-4.956 16.1199,-10.5248 23.3577,-17.8527 7.2379,-7.328 14.1805,-16.4153 19.3839,-26.878 5.2036,-10.4627 8.6686,-22.3011 11.6966,-35.2831 3.028,-12.9821 5.6181,-27.1058 6.9318,-40.8881 1.3135,-13.7823 1.3509,-27.2234 0.2578,-39.8769 -1.093,-12.6536 -3.316,-24.5205 -6.945,-36.2388 -3.6291,-11.7184 -8.6646,-23.2871 -14.6635,-33.4496 -5.9988,-10.1624 -12.9614,-18.919 -19.9241,-27.6736 L 1478.7193,1193.1065 A 606.12755,606.12755 0 0 0 1583.1709,853.09606 606.12755,606.12755 0 0 0 977.04333,246.9685 Z" /></g></svg>
