<?xml version="1.0" encoding="UTF-8" standalone="no"?>
<!-- Created with Inkscape (http://www.inkscape.org/) -->

<svg
   version="1.1"
   id="svg2"
   width="574"
   height="703.63177"
   viewBox="0 0 574 703.63177"
   sodipodi:docname="jk.png"
   xml:space="preserve"
   xmlns:inkscape="http://www.inkscape.org/namespaces/inkscape"
   xmlns:sodipodi="http://sodipodi.sourceforge.net/DTD/sodipodi-0.dtd"
   xmlns="http://www.w3.org/2000/svg"
   xmlns:svg="http://www.w3.org/2000/svg"><defs
     id="defs6" /><sodipodi:namedview
     id="namedview4"
     pagecolor="#505050"
     bordercolor="#eeeeee"
     borderopacity="1"
     inkscape:showpageshadow="0"
     inkscape:pageopacity="0"
     inkscape:pagecheckerboard="0"
     inkscape:deskcolor="#505050"
     showgrid="false" /><g
     inkscape:groupmode="layer"
     inkscape:label="Image"
     id="g8"
     transform="translate(-25,-26.979196)"><path
       style="fill:#ffd46a;fill-opacity:1"
       d="M 234.79912,657.70195 C 203.65245,617.44088 143.70881,539.95 101.59104,485.5 l -76.577774,-99 -0.0066,-17.7603 L 25,350.97941 l 44.678225,0.26029 44.678225,0.2603 0.71592,2.67755 c 0.39375,1.47265 7.65523,11.59765 16.13661,22.5 8.48139,10.90235 21.67219,27.92245 29.3129,37.82245 7.6407,9.9 20.09902,26.02605 27.68515,35.83567 L 202,468.17134 V 292.58567 117 H 113.5 25 V 72 27 h 133.5 c 126.47614,0 133.50001,0.09207 133.50012,1.75 0.0354,502.66531 -0.0432,701.62637 -0.27718,701.86039 -0.16143,0.16143 -25.77715,-32.64737 -56.92382,-72.90844 z M 332.24859,379.46569 332.5,27.5 h 44.5 44.5 l 0.5,92.25442 0.5,92.25442 43.74209,-43.75442 L 509.98418,124.5 510.24209,76 510.5,27.5 554.75,27.239598 599,26.979196 v 67.762415 67.762419 l -56.90288,56.99798 -56.90287,56.99799 56.03966,56.14009 56.03967,56.1401 -47.84264,61.8599 c -26.31345,34.02295 -54.6125,70.61956 -62.88679,81.3258 l -15.04415,19.4659 -0.25652,-73.31376 -0.25651,-73.31377 3.00651,-3.79603 C 475.64707,398.92041 477,397.01582 477,396.7758 c 0,-0.24002 -12.2625,-12.66168 -27.25,-27.6037 l -27.25,-27.16731 -0.25357,136.66374 -0.25357,136.66374 -6.21187,8.08386 C 412.36446,627.86226 403.45185,639.375 395.9752,649 c -7.47666,9.625 -24.32265,31.45 -37.43555,48.5 -13.11289,17.05 -24.44932,31.65956 -25.19205,32.46569 -1.13407,1.23088 -1.31014,-54.92206 -1.09901,-350.5 z"
       id="path847" /></g></svg>
